<svg id="Layer_1" data-name="Layer 1" xmlns="http://www.w3.org/2000/svg" viewBox="0 0 108.63 33.44"><defs><style>.cls-1{fill:#00e676;}</style></defs><title>wjs</title><path d="M35.24,45.32,31,28.26V46.74a3.4,3.4,0,0,1-.68,2.3,2.34,2.34,0,0,1-1.82.77,2.3,2.3,0,0,1-1.79-.76A3.32,3.32,0,0,1,26,46.74V25.56a2.63,2.63,0,0,1,.91-2.36,4.35,4.35,0,0,1,2.46-.62H31a6.41,6.41,0,0,1,2.2.28,1.85,1.85,0,0,1,1,1A15.45,15.45,0,0,1,35,26.16l3.89,14.66,3.88-14.66a15.45,15.45,0,0,1,.75-2.32,1.85,1.85,0,0,1,1-1,6.41,6.41,0,0,1,2.2-.28h1.68a4.35,4.35,0,0,1,2.46.62,2.63,2.63,0,0,1,.91,2.36V46.74A3.35,3.35,0,0,1,51.1,49a2.35,2.35,0,0,1-1.83.77A2.32,2.32,0,0,1,47.49,49a3.35,3.35,0,0,1-.69-2.3V28.26L42.51,45.32c-.28,1.1-.51,1.92-.69,2.43a3.35,3.35,0,0,1-1,1.42,2.88,2.88,0,0,1-2,.64,2.88,2.88,0,0,1-2.63-1.46,5.8,5.8,0,0,1-.58-1.42Z" transform="translate(-23.53 -22.13)"/><path d="M91.53,37.9H89.64v8.6a3.54,3.54,0,0,1-.75,2.5,2.54,2.54,0,0,1-2,.81,2.5,2.5,0,0,1-2-.84,3.75,3.75,0,0,1-.71-2.47V25.91A3.45,3.45,0,0,1,85,23.37a3.49,3.49,0,0,1,2.54-.79h8.81a27.64,27.64,0,0,1,3.13.16,7.6,7.6,0,0,1,2.33.63A6.77,6.77,0,0,1,104,24.88a6.56,6.56,0,0,1,1.47,2.3,7.51,7.51,0,0,1,.5,2.76,6.69,6.69,0,0,1-1.69,4.79,9.62,9.62,0,0,1-5.12,2.53A10.15,10.15,0,0,1,102,39.53a23.3,23.3,0,0,1,2.35,3.18,24.79,24.79,0,0,1,1.6,3,5.88,5.88,0,0,1,.58,1.88,1.89,1.89,0,0,1-.34,1,2.37,2.37,0,0,1-.92.82,2.92,2.92,0,0,1-1.35.3,2.71,2.71,0,0,1-1.54-.43,4.08,4.08,0,0,1-1.06-1.09c-.3-.44-.71-1.08-1.22-1.93l-2.17-3.62a20.46,20.46,0,0,0-2.09-3,5.19,5.19,0,0,0-1.87-1.42A6.38,6.38,0,0,0,91.53,37.9Zm3.11-11.24h-5V34h4.85a14,14,0,0,0,3.29-.33,3.84,3.84,0,0,0,2-1.15,3.32,3.32,0,0,0,.71-2.24,3.39,3.39,0,0,0-2.14-3.23A11.23,11.23,0,0,0,94.64,26.66Z" transform="translate(-23.53 -22.13)"/><path d="M131.48,41.32a7.8,7.8,0,0,1-1.25,4.36,8.27,8.27,0,0,1-3.66,3,13.69,13.69,0,0,1-5.71,1.1,12.87,12.87,0,0,1-6.54-1.5,8.77,8.77,0,0,1-3-2.87,6.55,6.55,0,0,1-1.14-3.5,2.37,2.37,0,0,1,2.43-2.39,2.07,2.07,0,0,1,1.45.54,4.31,4.31,0,0,1,1,1.63,11.47,11.47,0,0,0,1.1,2.14,4.49,4.49,0,0,0,1.67,1.41,6.19,6.19,0,0,0,2.83.56,6.39,6.39,0,0,0,3.92-1.13,3.37,3.37,0,0,0,1.5-2.8,3,3,0,0,0-.81-2.16,5.13,5.13,0,0,0-2.1-1.27c-.86-.29-2-.6-3.44-.93A25.57,25.57,0,0,1,115,36a7.75,7.75,0,0,1-3.08-2.47,6.33,6.33,0,0,1-1.15-3.88,6.67,6.67,0,0,1,1.21-3.92,7.53,7.53,0,0,1,3.49-2.64,14.35,14.35,0,0,1,5.36-.92,13.24,13.24,0,0,1,4.27.61,9.09,9.09,0,0,1,3,1.62,7,7,0,0,1,1.74,2.13,5,5,0,0,1,.55,2.17,2.57,2.57,0,0,1-.69,1.75,2.17,2.17,0,0,1-1.71.77,2,2,0,0,1-1.41-.46,6.38,6.38,0,0,1-1.05-1.53,7,7,0,0,0-1.75-2.36,5.13,5.13,0,0,0-3.29-.85,5.74,5.74,0,0,0-3.39.92,2.68,2.68,0,0,0-1.28,2.22,2.25,2.25,0,0,0,.43,1.39,3.79,3.79,0,0,0,1.21,1,8.29,8.29,0,0,0,1.55.66c.52.16,1.39.39,2.59.69,1.51.36,2.88.75,4.1,1.17a12.61,12.61,0,0,1,3.12,1.55,6.39,6.39,0,0,1,2,2.31A7.46,7.46,0,0,1,131.48,41.32Z" transform="translate(-23.53 -22.13)"/><path class="cls-1" d="M132.16,51.93c0,.84-.46,3.64-1.33,3.64H81.15a5.14,5.14,0,0,1-4.8-3.32l-.22-.58-.06-.15-1.18-3.24-.41-1.06-2.74-7.45-1.62-4.42v0l-1.74-4.73a.72.72,0,0,0-1.35,0l-2,5.53,0,.1-4.77,13L60,49.8l-.72,1.78,0,.09-.44,1.13a4.41,4.41,0,0,1-4.09,2.77H25.21c-.87,0-1.68-2.35-1.68-3.19s.69-.68,1.53-.68l25.78-.11a4.38,4.38,0,0,0,4.08-2.78l1-2.4.71-1.87,6.49-16.42c.18-.5.4-1.13.68-1.81a10.17,10.17,0,0,1,.87-1.75,3.39,3.39,0,0,1,1.25-1.12,4.19,4.19,0,0,1,3.74,0,3.7,3.7,0,0,1,1.25,1.09A7.91,7.91,0,0,1,71.64,26c.22.53.47,1.21.82,2.08l6.66,16.49.32.78.43,1.15.82,2.14a4.42,4.42,0,0,0,4.13,2.84l45.78-.18C131.44,51.3,132.16,51.06,132.16,51.93Z" transform="translate(-23.53 -22.13)"/><path class="cls-1" d="M33.27,51.67h26l-.44,1.13a4.41,4.41,0,0,1-4.09,2.77H33.27Z" transform="translate(-23.53 -22.13)"/><path class="cls-1" d="M121.19,51.67v3.9H80.65a4.41,4.41,0,0,1-4.12-2.84l-.4-1.06Z" transform="translate(-23.53 -22.13)"/></svg>